<svg width="14" height="14" viewBox="0 0 14 14" fill="none" xmlns="http://www.w3.org/2000/svg">
<path d="M9.3868 10.4175C8.21794 11.326 6.74696 11.7545 5.27336 11.616C3.79977 11.4774 2.43436 10.7821 1.45517 9.67163C0.475972 8.56118 -0.0433867 7.11908 0.00284104 5.63895C0.0490687 4.15883 0.657407 2.75198 1.70399 1.70486C2.75057 0.657743 4.1567 0.0490939 5.63607 0.0028425C7.11544 -0.0434089 8.5568 0.476216 9.66669 1.45591C10.7766 2.43561 11.4715 3.80171 11.61 5.27606C11.7485 6.75041 11.3202 8.22215 10.4122 9.3916L13.7855 12.7541C14.0711 13.0387 14.0715 13.5011 13.7865 13.7862C13.5015 14.0714 13.0391 14.0712 12.7543 13.7858L9.39407 10.4175H9.3868ZM5.82341 10.1847C6.39641 10.1847 6.9638 10.0718 7.49318 9.85237C8.02257 9.63298 8.50358 9.31141 8.90875 8.90603C9.31392 8.50065 9.63532 8.0194 9.8546 7.48974C10.0739 6.96009 10.1867 6.39241 10.1867 5.81912C10.1867 5.24582 10.0739 4.67814 9.8546 4.14849C9.63532 3.61883 9.31392 3.13758 8.90875 2.7322C8.50358 2.32682 8.02257 2.00525 7.49318 1.78586C6.9638 1.56647 6.39641 1.45355 5.82341 1.45355C4.66618 1.45355 3.55635 1.9135 2.73807 2.7322C1.91979 3.5509 1.46008 4.6613 1.46008 5.81912C1.46008 6.97693 1.91979 8.08733 2.73807 8.90603C3.55635 9.72474 4.66618 10.1847 5.82341 10.1847Z" fill="#8B83BA"/>
</svg>
